<svg xmlns="http://www.w3.org/2000/svg" viewBox="0 0 967.6 286.5" width="64px" height="64px"><path d="M115.8,604.9a8.74,8.74,0,0,1-8.4-5.2L62.9,511a9.53,9.53,0,0,1,.4-9.4,8.74,8.74,0,0,1,7.9-4.5,33.46,33.46,0,0,0,24.7-10.3,33.84,33.84,0,0,0,10.3-24.7,33.46,33.46,0,0,0-10.3-24.7,33.84,33.84,0,0,0-24.7-10.3h-35V595.2a9.27,9.27,0,0,1-2.7,6.8,9,9,0,0,1-6.6,2.7,9,9,0,0,1-6.6-2.7,9.27,9.27,0,0,1-2.7-6.8V418a9.23,9.23,0,0,1,9.5-9.5H71.3a52.18,52.18,0,0,1,38.1,15.7A53.31,53.31,0,0,1,114,495a54.63,54.63,0,0,1-28.3,19.2l38.4,77.1a9.47,9.47,0,0,1,.6,7.2,8.85,8.85,0,0,1-8.9,6.4Z" transform="translate(-17.1 -363.5)" style="fill:#e76126;stroke:#f15a22;stroke-miterlimit:10"/><path d="M231.9,589.2a54,54,0,0,1-76.1,0,51.79,51.79,0,0,1-15.7-38v-89a53.6,53.6,0,0,1,53.7-53.7,52.18,52.18,0,0,1,38.1,15.7,51.59,51.59,0,0,1,15.9,38,9.06,9.06,0,0,1-2.9,6.8,9.42,9.42,0,0,1-13.2,0,9.06,9.06,0,0,1-2.9-6.8,33.46,33.46,0,0,0-10.3-24.7,33.84,33.84,0,0,0-24.7-10.3,33.46,33.46,0,0,0-24.7,10.3,33.84,33.84,0,0,0-10.3,24.7v89a33.46,33.46,0,0,0,10.3,24.7,33.84,33.84,0,0,0,24.7,10.3,33.46,33.46,0,0,0,24.7-10.3,33.84,33.84,0,0,0,10.3-24.7,9.06,9.06,0,0,1,2.9-6.8,9.42,9.42,0,0,1,13.2,0,9.06,9.06,0,0,1,2.9,6.8A51.59,51.59,0,0,1,231.9,589.2ZM216,516.3H171.5a8.74,8.74,0,0,1-6.5-2.9,9.42,9.42,0,0,1,0-13.2,8.74,8.74,0,0,1,6.5-2.9H216a9.06,9.06,0,0,1,6.8,2.9,9.42,9.42,0,0,1,0,13.2A9.06,9.06,0,0,1,216,516.3Z" transform="translate(-17.1 -363.5)" style="fill:#e76126;stroke:#f15a22;stroke-miterlimit:10"/><path d="M367.4,602.2a9.42,9.42,0,0,1-13.2,0,9.06,9.06,0,0,1-2.9-6.8V457.6L324.7,511a8.64,8.64,0,0,1-8.4,5.2,8.74,8.74,0,0,1-8.4-5.2l-26.6-53.4V595.4a9.27,9.27,0,0,1-2.7,6.8,9.42,9.42,0,0,1-13.2,0,9.27,9.27,0,0,1-2.7-6.8V418a10.14,10.14,0,0,1,2-6.1,9,9,0,0,1,5.2-3.3,9.52,9.52,0,0,1,6.2.7,9.88,9.88,0,0,1,4.5,4.3l35.8,71.9,36.1-71.9a9.43,9.43,0,0,1,4.3-4.3,8.53,8.53,0,0,1,6.1-.7,9.62,9.62,0,0,1,5.3,3.3,9.5,9.5,0,0,1,2.2,6.1V595.4A9.54,9.54,0,0,1,367.4,602.2Z" transform="translate(-17.1 -363.5)" style="fill:#e76126;stroke:#f15a22;stroke-miterlimit:10"/><path d="M476.9,589.2a53.75,53.75,0,0,1-91.8-38v-89a53.85,53.85,0,0,1,107.7,0v89A51.59,51.59,0,0,1,476.9,589.2ZM463.5,437.5a33.84,33.84,0,0,0-24.7-10.3,33.46,33.46,0,0,0-24.7,10.3,33.84,33.84,0,0,0-10.3,24.7v89a33.46,33.46,0,0,0,10.3,24.7,33.84,33.84,0,0,0,24.7,10.3,33.46,33.46,0,0,0,24.7-10.3,33.84,33.84,0,0,0,10.3-24.7v-89A34.4,34.4,0,0,0,463.5,437.5Z" transform="translate(-17.1 -363.5)" style="fill:#e76126;stroke:#f15a22;stroke-miterlimit:10"/><path d="M599.4,589.2a53.75,53.75,0,0,1-91.8-38v-89a53.85,53.85,0,0,1,107.7,0v89A51.59,51.59,0,0,1,599.4,589.2ZM585.9,437.5a33.84,33.84,0,0,0-24.7-10.3,33.46,33.46,0,0,0-24.7,10.3,33.84,33.84,0,0,0-10.3,24.7v89a33.46,33.46,0,0,0,10.3,24.7,33.84,33.84,0,0,0,24.7,10.3,33.46,33.46,0,0,0,24.7-10.3,33.84,33.84,0,0,0,10.3-24.7v-89A33.62,33.62,0,0,0,585.9,437.5Z" transform="translate(-17.1 -363.5)" style="fill:#e76126;stroke:#f15a22;stroke-miterlimit:10"/><path d="M690.5,602.2a9.42,9.42,0,0,1-13.2,0,9.27,9.27,0,0,1-2.7-6.8V427.3h-35a9.27,9.27,0,0,1-6.8-2.7,9.42,9.42,0,0,1,0-13.2,9.27,9.27,0,0,1,6.8-2.7h88.7a9.31,9.31,0,0,1,6.6,2.7,9,9,0,0,1,0,13.2,9.31,9.31,0,0,1-6.6,2.7h-35V595.4A9.36,9.36,0,0,1,690.5,602.2Z" transform="translate(-17.1 -363.5)" style="fill:#e76126;stroke:#f15a22;stroke-miterlimit:10"/><path d="M768.5,602.2a9.42,9.42,0,0,1-13.2,0,9.27,9.27,0,0,1-2.7-6.8V418a9.27,9.27,0,0,1,2.7-6.8,9.42,9.42,0,0,1,13.2,0,9.27,9.27,0,0,1,2.7,6.8V595.4A8.9,8.9,0,0,1,768.5,602.2Z" transform="translate(-17.1 -363.5)" style="fill:#e76126;stroke:#f15a22;stroke-miterlimit:10"/><path d="M877.8,589.2a53.75,53.75,0,0,1-91.8-38v-89a53.85,53.85,0,0,1,107.7,0v89A51.59,51.59,0,0,1,877.8,589.2ZM864.4,437.5a33.84,33.84,0,0,0-24.7-10.3A33.46,33.46,0,0,0,815,437.5a33.84,33.84,0,0,0-10.3,24.7v89A33.46,33.46,0,0,0,815,575.9a33.84,33.84,0,0,0,24.7,10.3,33.46,33.46,0,0,0,24.7-10.3,33.84,33.84,0,0,0,10.3-24.7v-89A34,34,0,0,0,864.4,437.5Z" transform="translate(-17.1 -363.5)" style="fill:#e76126;stroke:#f15a22;stroke-miterlimit:10"/><path d="M893.3,623.2a9.08,9.08,0,0,1-6.5-2.7,9.29,9.29,0,0,1,0-13.1,142.32,142.32,0,0,0-.1-201.4,9.26,9.26,0,1,1,13.1-13.1,160.91,160.91,0,0,1,.1,227.6A9.66,9.66,0,0,1,893.3,623.2Z" transform="translate(-17.1 -363.5)" style="fill:#e76126;stroke:#f15a22;stroke-miterlimit:10"/><path d="M919.5,649.5a9.08,9.08,0,0,1-6.5-2.7,9.29,9.29,0,0,1,0-13.1c70-70,70-183.9,0-253.9a9.26,9.26,0,1,1,13.1-13.1,197.85,197.85,0,0,1,.1,280A9.82,9.82,0,0,1,919.5,649.5Z" transform="translate(-17.1 -363.5)" style="fill:#e76126;stroke:#f15a22;stroke-miterlimit:10"/></svg>