<svg xmlns="http://www.w3.org/2000/svg" viewBox="0 0 354.34 349.22"><path d="M176.76,349.22H39.16c-23,0-39.16-16.06-39.16-39V38.87C0,16.17,16.21.06,39,.06Q177.17,0,315.34,0c22.79,0,39,16.12,39,38.85V310.2c0,23-16.13,39-39.2,39Zm0-1.8H315.51c21.29,0,37-15.64,37-36.9V38.74a40.48,40.48,0,0,0-1.12-9.62c-4.11-16.74-18.3-27.28-36.56-27.29H39.91c-22.81,0-38.09,15.25-38.09,38V309.36c0,22.78,15.28,38,38.09,38Z"/><path d="M126,125.1c3.19-6.36,5.79-11.87,8.72-17.2.77-1.4,2.55-2.24,3.87-3.34.75,1.53,2.15,3.06,2.16,4.6.17,14.72.11,29.44.09,44.16,0,2,.08,4.47-2.65,4.54-3,.08-3-2.44-3-4.62V120.47l-.7-.17c-1.76,3.51-3.4,7.1-5.35,10.5-.72,1.25-2.09,2.69-3.34,2.89-.84.13-2.31-1.59-3-2.78-2-3.46-3.64-7.06-5.88-11.52-.18,1.79-.35,2.65-.35,3.51v29.19c0,1,.32,2.19-.11,2.95a16.14,16.14,0,0,1-2.75,2.91c-.84-.94-2.18-1.77-2.41-2.83a28.66,28.66,0,0,1-.15-6v-39.3c0-2-.63-4.9,2.24-5.1,1.27-.09,3.16,2,4,3.49C120.3,113.46,122.85,118.87,126,125.1Z"/><path d="M63.72,133.67l8.8,17.67c.44.89,1.26,1.83,1.19,2.69a14.74,14.74,0,0,1-1.29,3.75c-1.14-.48-2.89-.65-3.34-1.5-4.13-7.82-8.16-15.7-11.94-23.7-1.4-3,.82-3.83,3.38-4.28,5-.86,8-4.2,8.1-8.79a8.88,8.88,0,0,0-7.79-9.43,77,77,0,0,0-8.59-.24c-2.54,0-2.23,1.83-2.23,3.43v36.26c0,1.62.31,3.33-.11,4.83-.37,1.32-1.58,2.4-2.42,3.58-1-1.2-2.73-2.38-2.77-3.61-.25-8.21-.14-16.44-.15-24.67V109.47c0-4.38.68-5,4.95-5.08,3.12,0,6.24-.06,9.36,0,7.31.15,13.17,4.48,14.85,10.89,1.83,7-1.11,13.39-7.93,17.23Z"/><path d="M144.51,131.23c0-4.12-.14-8.24,0-12.35a14.79,14.79,0,0,1,29.57.2q.28,12.15,0,24.32a14.78,14.78,0,0,1-29.56.18C144.37,139.47,144.51,135.34,144.51,131.23Zm24.08,0V119.64c-.25-5.71-4-9.7-9.25-9.77s-9.26,4-9.32,9.95q-.11,11.42,0,22.82c.06,5.94,4,10.07,9.32,10,5.16-.08,9.07-4.16,9.23-9.81.1-3.83,0-7.73,0-11.6Z"/><path d="M253.5,131.14c0-4.24-.15-8.49,0-12.73a14.73,14.73,0,0,1,29.43.38c.12,8.36.14,16.72,0,25.07a14.72,14.72,0,0,1-29.41.37C253.34,139.88,253.5,135.5,253.5,131.14Zm24,.2c0-4,.08-8,0-12-.16-5.53-4.31-9.61-9.5-9.49a9.19,9.19,0,0,0-9.06,9.33v.15q-.12,11.78,0,23.57c.05,5.6,4.05,9.72,9.24,9.72s9.2-4.13,9.33-9.7c.09-3.85,0-7.72,0-11.58Z"/><path d="M177.8,131.29c0-4.11-.06-8.23,0-12.35a14.72,14.72,0,1,1,29.44-.31q.3,12.54,0,25.08a14.74,14.74,0,0,1-29.47-.44C177.75,139.28,177.8,135.29,177.8,131.29Zm5.41,0c0,3.87-.05,7.74,0,11.61.09,5.61,4,9.74,9.22,9.77s9.3-4.09,9.36-9.64q.14-11.79,0-23.58c-.07-5.56-4.19-9.64-9.41-9.56s-9.09,4.15-9.17,9.8c-.05,3.84,0,7.7,0,11.57Z"/><path d="M78,131.1c0-4.24-.12-8.48,0-12.71a14.59,14.59,0,0,1,13.93-14,15,15,0,0,1,15.36,12.1c.12.74.42,1.67.11,2.2a25.13,25.13,0,0,1-2.57,3.08,17.68,17.68,0,0,1-2.71-2.55c-.45-.64-.27-1.7-.5-2.53a9.29,9.29,0,0,0-9.94-6.77,9,9,0,0,0-8.23,8.7q-.22,12.51,0,25a9.13,9.13,0,0,0,8.45,8.93,9.41,9.41,0,0,0,9.79-7c.19-.72,0-1.67.41-2.17a25.16,25.16,0,0,1,3-2.65c.8,1.08,2.21,2.12,2.29,3.25.52,6.93-6.54,13.79-14.19,14.08A14.64,14.64,0,0,1,78,144.17C77.86,139.82,78,135.46,78,131.1Z"/><path d="M307.67,131.27c-.31,13.61-4.71,25.63-13.81,35.84-.66.74-1.27,1.79-2.11,2-1.12.35-2.93.55-3.53-.06s-.31-2.37-.08-3.56c.12-.63.94-1.12,1.44-1.68a48.44,48.44,0,0,0-.11-65.39c-.58-.64-1.52-1.24-1.65-2-.18-1.07-.18-2.67.46-3.26s2.26-.45,3.27-.11c.85.29,1.47,1.29,2.14,2C302.92,105.44,307.38,117.56,307.67,131.27Z"/><path d="M223,109.8c-3,0-5.68.31-8.2-.12-1.34-.24-2.47-1.74-3.7-2.67,1.18-.87,2.33-2.46,3.54-2.49q11.22-.34,22.45,0c1.16,0,2.27,1.69,3.4,2.59-1.12.89-2.16,2.38-3.39,2.56-2.65.4-5.39.12-8.48.12v41.63a12.94,12.94,0,0,1-.26,4.07c-.36,1-1.67,2.42-2.33,2.31a4.75,4.75,0,0,1-2.79-2.35c-.48-.88-.23-2.19-.23-3.3V109.8Z"/><path d="M297.44,131.13a42.37,42.37,0,0,1-11.66,29.78A5.32,5.32,0,0,1,282,162.6c-2.29-.24-2.36-2.74-.13-5.22a38.62,38.62,0,0,0,.19-52.07c-1.34-1.51-3.17-3.11-1-5s3.65,0,5,1.48A42.61,42.61,0,0,1,297.44,131.13Z"/><path d="M244.35,131.3V108.91c0-2,0-4.55,2.8-4.17,1.07.15,2.56,2.62,2.58,4,.19,14.92.12,29.86.11,44.79,0,2.07-.21,4.51-2.88,4.16-1-.13-2.44-2.6-2.49-4.05C244.21,146.24,244.35,138.77,244.35,131.3Z"/><path d="M92.72,134c-1.86,0-3.81.32-5.56-.12-1.16-.29-2-1.68-3.06-2.57,1-1,1.83-2.63,2.84-2.72a69.48,69.48,0,0,1,11.54,0c1,.09,1.93,1.76,2.89,2.7-1,.9-1.91,2.29-3.08,2.59C96.54,134.35,94.59,134,92.72,134Z"/><path d="M175.85,229.42a11.75,11.75,0,1,1,12-11.54V218A11.71,11.71,0,0,1,175.85,229.42Zm.4-22.44a10.69,10.69,0,1,0,10.48,11,10.92,10.92,0,0,0-10.48-11Z"/></svg>